<svg xmlns="http://www.w3.org/2000/svg" viewBox="0 0 640 400" width="640" height="400" role="img"><defs><linearGradient id="eduaictepragati001bg" x1="0" y1="0" x2="0" y2="1"><stop offset="0%" stop-color="#F0ECFB"/><stop offset="100%" stop-color="#DFD7F5"/></linearGradient><radialGradient id="eduaictepragati001med" cx="0.5" cy="0.45" r="0.6"><stop offset="0%" stop-color="#FFFFFF" stop-opacity="0.85"/><stop offset="100%" stop-color="#FFFFFF" stop-opacity="0.25"/></radialGradient></defs><rect width="640" height="400" fill="url(#eduaictepragati001bg)"/><circle cx="90" cy="70" r="46" fill="#7A66C9" opacity="0.10"/><circle cx="560" cy="330" r="60" fill="#7A66C9" opacity="0.10"/><circle cx="565" cy="70" r="16" fill="#F2A73B" opacity="0.5"/><circle cx="320" cy="180" r="150" fill="#7A66C9" opacity="0.14"/><circle cx="320" cy="180" r="132" fill="url(#eduaictepragati001med)"/><ellipse cx="320" cy="312" rx="120" ry="17" fill="#2E2358" opacity="0.10"/><circle cx="280" cy="170" r="24" fill="#F2C6A0"/><path d="M258.4,170.0 q-7.2,26.4 2.4,36.0" stroke="#5B47B0" stroke-width="6.7" fill="none" stroke-linecap="round"/><path d="M301.6,170.0 q7.2,26.4 -2.4,36.0" stroke="#5B47B0" stroke-width="6.7" fill="none" stroke-linecap="round"/><path d="M244.0,246.8 Q280.0,196.4 316.0,246.8 Z" fill="#7A66C9"/><circle cx="366" cy="190" r="30" fill="none" stroke="#5B47B0" stroke-width="8"/><circle cx="366" cy="190" r="10" fill="#5B47B0"/><rect x="362.0" y="152.0" width="8" height="12" rx="2" fill="#5B47B0"/><rect x="362.0" y="216.0" width="8" height="12" rx="2" fill="#5B47B0"/><rect x="328.0" y="186.0" width="12" height="8" rx="2" fill="#5B47B0"/><rect x="392.0" y="186.0" width="12" height="8" rx="2" fill="#5B47B0"/><circle cx="410" cy="130" r="22" fill="#F2A73B"/><text x="410" y="137.7" font-family="Arial, sans-serif" font-weight="800" font-size="22.0" fill="#3a2207" text-anchor="middle">₹</text></svg>
