<svg xmlns="http://www.w3.org/2000/svg" viewBox="0 0 640 400" width="640" height="400" role="img"><defs><linearGradient id="kvp001bg" x1="0" y1="0" x2="0" y2="1"><stop offset="0%" stop-color="#EAF6EF"/><stop offset="100%" stop-color="#D2EADC"/></linearGradient><radialGradient id="kvp001med" cx="0.5" cy="0.45" r="0.6"><stop offset="0%" stop-color="#FFFFFF" stop-opacity="0.85"/><stop offset="100%" stop-color="#FFFFFF" stop-opacity="0.25"/></radialGradient></defs><rect width="640" height="400" fill="url(#kvp001bg)"/><circle cx="90" cy="70" r="46" fill="#16A06B" opacity="0.10"/><circle cx="560" cy="330" r="60" fill="#16A06B" opacity="0.10"/><circle cx="565" cy="70" r="16" fill="#F2A73B" opacity="0.5"/><circle cx="320" cy="180" r="150" fill="#16A06B" opacity="0.14"/><circle cx="320" cy="180" r="132" fill="url(#kvp001med)"/><ellipse cx="320" cy="312" rx="120" ry="17" fill="#0C3B2A" opacity="0.10"/><rect x="222" y="78" width="180" height="200" rx="10" fill="#FFFFFF" stroke="#0A5A3C" stroke-width="2"/><rect x="222" y="78" width="180" height="30" rx="10" fill="#0F7A52"/><rect x="222" y="98" width="180" height="12" fill="#0F7A52"/><rect x="240" y="130" width="114" height="6" rx="3" fill="#16A06B" opacity="0.30"/><rect x="240" y="150" width="144" height="6" rx="3" fill="#16A06B" opacity="0.30"/><rect x="240" y="170" width="114" height="6" rx="3" fill="#16A06B" opacity="0.30"/><rect x="240" y="190" width="144" height="6" rx="3" fill="#16A06B" opacity="0.30"/><rect x="240" y="210" width="114" height="6" rx="3" fill="#16A06B" opacity="0.30"/><circle cx="398" cy="118" r="30" fill="#F2A73B"/><text x="398" y="125.3" font-family="Arial, sans-serif" font-weight="800" font-size="21.0" fill="#5A3B08" text-anchor="middle">×2</text><line x1="250" y1="280.0" x2="250" y2="220.0" stroke="#0A5A3C" stroke-width="2.7"/><path d="M250,220.0 q12.0,-3.0 15.0,7.5 q-12.0,3.0 -15.0,-7.5 Z" fill="#0A5A3C"/><path d="M250,220.0 q-12.0,-3.0 -15.0,7.5 q12.0,3.0 15.0,-7.5 Z" fill="#0A5A3C"/><path d="M250,235.0 q12.0,-3.0 15.0,7.5 q-12.0,3.0 -15.0,-7.5 Z" fill="#0A5A3C"/><path d="M250,235.0 q-12.0,-3.0 -15.0,7.5 q12.0,3.0 15.0,-7.5 Z" fill="#0A5A3C"/><path d="M250,250.0 q12.0,-3.0 15.0,7.5 q-12.0,3.0 -15.0,-7.5 Z" fill="#0A5A3C"/><path d="M250,250.0 q-12.0,-3.0 -15.0,7.5 q12.0,3.0 15.0,-7.5 Z" fill="#0A5A3C"/><path d="M250,265.0 q12.0,-3.0 15.0,7.5 q-12.0,3.0 -15.0,-7.5 Z" fill="#0A5A3C"/><path d="M250,265.0 q-12.0,-3.0 -15.0,7.5 q12.0,3.0 15.0,-7.5 Z" fill="#0A5A3C"/></svg>
