<svg width="400" height="225" viewBox="0 0 400 225" xmlns="http://www.w3.org/2000/svg" role="img" aria-label="Post Office Monthly Income Scheme">
  <defs>
    <radialGradient id="bg-pomis_001" cx="30%" cy="30%" r="90%">
      <stop offset="0%" stop-color="#F6F1E7"/>
      <stop offset="100%" stop-color="#EFE8D8"/>
    </radialGradient>
    <linearGradient id="scrim-pomis_001" x1="0" y1="0" x2="0" y2="1">
      <stop offset="0%" stop-color="#16213E" stop-opacity="0"/>
      <stop offset="55%" stop-color="#16213E" stop-opacity="0"/>
      <stop offset="100%" stop-color="#16213E" stop-opacity="0.62"/>
    </linearGradient>
    <pattern id="dots-pomis_001" width="18" height="18" patternUnits="userSpaceOnUse">
      <circle cx="2" cy="2" r="1.4" fill="#1B6E4C" opacity="0.07"/>
    </pattern>
  </defs>

  <rect width="400" height="225" fill="url(#bg-pomis_001)"/>
  <rect width="400" height="225" fill="url(#dots-pomis_001)"/>

  <circle cx="294.0" cy="79.5" r="105" fill="#1B6E4C" opacity="0.10"/>
  <circle cx="294.0" cy="79.5" r="66" fill="#1B6E4C" opacity="0.16"/>

  <g transform="translate(294.0,79.5) rotate(-9)" color="#134F37">
    <path d="M-40 10 Q-40 -28 -6 -30 Q10 -40 26 -30 Q40 -26 40 -6 Q40 14 20 18 L20 32 L8 32 L8 20 L-10 20 L-10 32 L-22 32 L-22 18 Q-40 12 -40 10 Z" fill="none" stroke="currentColor" stroke-width="5" stroke-linejoin="round"/><circle cx="18" cy="-10" r="3" fill="currentColor"/><path d="M-40 4 L-50 -2" stroke="currentColor" stroke-width="5" stroke-linecap="round"/><path d="M14 -34 L20 -44 L28 -40" stroke="currentColor" stroke-width="5" fill="none" stroke-linecap="round" stroke-linejoin="round"/>
  </g>

  <rect width="400" height="225" fill="url(#scrim-pomis_001)"/>
</svg>
